<?xml version="1.0" encoding="UTF-8" standalone="no"?>
<!-- Created with Inkscape (http://www.inkscape.org/) -->

<svg
   width="96.996468mm"
   height="26.02887mm"
   viewBox="0 0 96.996468 26.02887"
   version="1.1"
   id="svg5"
   xml:space="preserve"
   xmlns:inkscape="http://www.inkscape.org/namespaces/inkscape"
   xmlns:sodipodi="http://sodipodi.sourceforge.net/DTD/sodipodi-0.dtd"
   xmlns="http://www.w3.org/2000/svg"
   xmlns:svg="http://www.w3.org/2000/svg"><sodipodi:namedview
     id="namedview7"
     pagecolor="#ffffff"
     bordercolor="#ffffff"
     borderopacity="1"
     inkscape:showpageshadow="0"
     inkscape:pageopacity="1"
     inkscape:pagecheckerboard="1"
     inkscape:deskcolor="#505050"
     inkscape:document-units="mm"
     showgrid="false" /><defs
     id="defs2"><filter
       inkscape:collect="always"
       style="color-interpolation-filters:sRGB"
       id="filter1572"
       x="-0.13333333"
       y="-0.13333333"
       width="1.2666667"
       height="1.2666667"><feGaussianBlur
         inkscape:collect="always"
         stdDeviation="1.0258291"
         id="feGaussianBlur1574" /></filter><filter
       inkscape:collect="always"
       style="color-interpolation-filters:sRGB"
       id="filter1919"
       x="-0.10353932"
       y="-0.10722476"
       width="1.2070786"
       height="1.2144495"><feGaussianBlur
         inkscape:collect="always"
         stdDeviation="0.61720893"
         id="feGaussianBlur1921" /></filter><filter
       inkscape:collect="always"
       style="color-interpolation-filters:sRGB"
       id="filter1925"
       x="-0.10140033"
       y="-0.085192703"
       width="1.2028008"
       height="1.1703854"><feGaussianBlur
         inkscape:collect="always"
         stdDeviation="0.49038765"
         id="feGaussianBlur1927" /></filter><filter
       inkscape:collect="always"
       style="color-interpolation-filters:sRGB"
       id="filter1931"
       x="-0.12896539"
       y="-0.11034377"
       width="1.2579308"
       height="1.2206875"><feGaussianBlur
         inkscape:collect="always"
         stdDeviation="0.63516263"
         id="feGaussianBlur1933" /></filter><filter
       inkscape:collect="always"
       style="color-interpolation-filters:sRGB"
       id="filter1939"
       x="-0.18155633"
       y="-0.036658034"
       width="1.3631127"
       height="1.0733161"><feGaussianBlur
         inkscape:collect="always"
         stdDeviation="0.23441571"
         id="feGaussianBlur1941" /></filter></defs><g
     inkscape:label="Layer 1"
     inkscape:groupmode="layer"
     id="layer1"
     transform="translate(-47.828122,-160.02002)"><rect
       style="fill:#967058;fill-opacity:1;stroke-width:0.620001"
       id="rect2011"
       width="26.02887"
       height="26.02887"
       x="47.828121"
       y="160.02002"
       ry="2.8920968" /><rect
       style="opacity:0.898844;mix-blend-mode:normal;fill:#000000;fill-opacity:1;stroke-width:0.43983;filter:url(#filter1572)"
       id="rect2013"
       width="18.464924"
       height="18.464924"
       x="70.243477"
       y="164.02446"
       ry="2.0516584" /><rect
       style="fill:#967058;fill-opacity:1;stroke-width:0.620001"
       id="rect2015"
       width="26.02887"
       height="26.02887"
       x="72.07724"
       y="160.02002"
       ry="2.8920968" /><rect
       style="opacity:0.898844;mix-blend-mode:normal;fill:#000000;fill-opacity:1;stroke-width:0.43983;filter:url(#filter1572)"
       id="rect2017"
       width="18.464924"
       height="18.464924"
       x="93.602707"
       y="164.02446"
       ry="2.0516584" /><rect
       style="fill:#363962;fill-opacity:1;stroke-width:0.620001"
       id="rect2019"
       width="26.02887"
       height="26.02887"
       x="95.436478"
       y="160.02002"
       ry="2.8920968" /><rect
       style="opacity:0.898844;mix-blend-mode:normal;fill:#000000;fill-opacity:1;stroke-width:0.43983;filter:url(#filter1572)"
       id="rect2021"
       width="18.464924"
       height="18.464924"
       x="116.96197"
       y="164.02446"
       ry="2.0516584" /><rect
       style="fill:#967058;fill-opacity:1;stroke-width:0.620001"
       id="rect2023"
       width="26.02887"
       height="26.02887"
       x="118.79572"
       y="160.02002"
       ry="2.8920968" /><path
       d="M 66.401967,180.46064 H 62.71861 l -0.955633,-2.79267 h -5.121451 l -0.955633,2.79267 h -3.590582 l 5.102894,-13.81492 h 4.100872 z m -5.501843,-5.32557 -1.697872,-4.95444 -1.697873,4.95444 z"
       style="font-weight:bold;font-size:12.7076px;-inkscape-font-specification:'sans-serif, Bold';text-align:center;text-anchor:middle;opacity:1;fill:#000000;stroke-width:0.927069;filter:url(#filter1919)"
       id="path2025" /><path
       d="m 67.345823,179.8314 h -3.683357 l -0.955633,-2.79267 h -5.121451 l -0.955633,2.79267 h -3.590582 l 5.102894,-13.81492 h 4.100872 z m -5.501843,-5.32557 -1.697872,-4.95443 -1.697873,4.95443 z"
       style="font-weight:bold;font-size:12.7076px;-inkscape-font-specification:'sans-serif, Bold';text-align:center;text-anchor:middle;opacity:1;fill:#ffffff;stroke-width:0.927069"
       id="path2027" /><path
       d="m 89.679784,180.46064 h -11.60677 v -2.58856 l 6.884265,-8.5543 h -6.550251 v -2.67206 h 10.901629 v 2.63495 l -6.874979,8.50791 h 7.246106 z"
       style="font-weight:bold;font-size:12.7076px;-inkscape-font-specification:'sans-serif, Bold';text-align:center;text-anchor:middle;opacity:1;fill:#000000;stroke-width:0.927069;filter:url(#filter1925)"
       id="path2029" /><path
       d="m 90.466331,179.8314 h -11.60677 v -2.58856 l 6.884265,-8.5543 h -6.550251 v -2.67206 h 10.901629 v 2.63495 l -6.874979,8.50791 h 7.246106 z"
       style="font-weight:bold;font-size:12.7076px;-inkscape-font-specification:'sans-serif, Bold';text-align:center;text-anchor:middle;opacity:1;fill:#ffffff;stroke-width:0.927069"
       id="path2031" /><path
       d="m 113.53405,176.38719 q 0,1.00203 -0.40823,1.79065 -0.39896,0.78864 -1.10408,1.3082 -0.81647,0.61234 -1.79994,0.87213 -0.97418,0.25978 -2.47722,0.25978 h -6.03068 v -13.81492 h 5.36267 q 1.67004,0 2.44011,0.11134 0.77935,0.11133 1.54014,0.49173 0.78864,0.39895 1.16904,1.07625 0.38966,0.66801 0.38966,1.53086 0,1.00202 -0.52883,1.7721 -0.52885,0.7608 -1.49376,1.18758 v 0.0742 q 1.35458,0.26906 2.14322,1.11337 0.7979,0.84429 0.7979,2.22671 z m -4.56478,-5.67813 q 0,-0.34329 -0.17628,-0.68657 -0.167,-0.34329 -0.60307,-0.51029 -0.38967,-0.14845 -0.97418,-0.15772 -0.57523,-0.0186 -1.62364,-0.0186 h -0.33402 v 2.92257 h 0.55668 q 0.8443,0 1.43809,-0.0278 0.59379,-0.0278 0.93707,-0.18557 0.48247,-0.21339 0.63092,-0.5474 0.14848,-0.34328 0.14848,-0.78863 z m 0.87213,5.62246 q 0,-0.65874 -0.25977,-1.0113 -0.25052,-0.36184 -0.86286,-0.53813 -0.41751,-0.12067 -1.15046,-0.12994 -0.73297,-0.009 -1.53088,-0.009 h -0.77935 v 3.44213 h 0.25979 q 1.50304,0 2.15249,-0.009 0.64946,-0.009 1.19686,-0.24122 0.55667,-0.23194 0.76079,-0.61234 0.21339,-0.38968 0.21339,-0.89069 z"
       style="font-weight:bold;font-size:12.7076px;-inkscape-font-specification:'sans-serif, Bold';text-align:center;text-anchor:middle;opacity:1;fill:#000000;stroke-width:0.927069;filter:url(#filter1931)"
       id="path2033" /><path
       d="m 114.3206,175.60064 q 0,1.00203 -0.40823,1.79065 -0.39896,0.78864 -1.10408,1.3082 -0.81647,0.61234 -1.79994,0.87213 -0.97418,0.25978 -2.47722,0.25978 h -6.03068 v -13.81492 h 5.36267 q 1.67004,0 2.44011,0.11134 0.77935,0.11134 1.54014,0.49173 0.78864,0.39895 1.16904,1.07625 0.38966,0.66801 0.38966,1.53087 0,1.00202 -0.52883,1.7721 -0.52885,0.76079 -1.49376,1.18757 v 0.0742 q 1.35458,0.26906 2.14322,1.11337 0.7979,0.84429 0.7979,2.22671 z m -4.56478,-5.67812 q 0,-0.34329 -0.17628,-0.68657 -0.167,-0.34329 -0.60307,-0.5103 -0.38967,-0.14845 -0.97418,-0.15772 -0.57523,-0.0186 -1.62364,-0.0186 h -0.33402 v 2.92258 h 0.55668 q 0.8443,0 1.43809,-0.0278 0.59379,-0.0278 0.93707,-0.18557 0.48247,-0.21339 0.63092,-0.5474 0.14848,-0.34328 0.14848,-0.78863 z m 0.87213,5.62245 q 0,-0.65874 -0.25977,-1.0113 -0.25052,-0.36184 -0.86286,-0.53813 -0.41751,-0.12067 -1.15046,-0.12994 -0.73297,-0.009 -1.53088,-0.009 h -0.77935 v 3.44213 h 0.25979 q 1.50304,0 2.15249,-0.009 0.64946,-0.009 1.19686,-0.24122 0.55667,-0.23194 0.76079,-0.61234 0.21339,-0.38968 0.21339,-0.89069 z"
       style="font-weight:bold;font-size:12.7076px;-inkscape-font-specification:'sans-serif, Bold';text-align:center;text-anchor:middle;opacity:1;fill:#967058;fill-opacity:1;stroke-width:0.927069"
       id="path2035" /><text
       xml:space="preserve"
       style="font-style:normal;font-variant:normal;font-weight:bold;font-stretch:normal;font-size:21.44px;font-family:Arial;-inkscape-font-specification:'Arial, Bold';font-variant-ligatures:normal;font-variant-caps:normal;font-variant-numeric:normal;font-variant-east-asian:normal;text-align:center;text-anchor:middle;opacity:1;mix-blend-mode:normal;fill:#000000;fill-opacity:1;stroke-width:1.04605;filter:url(#filter1939)"
       x="126.22086"
       y="120.94221"
       id="text2039"
       transform="matrix(1.1936808,0,0,0.86335614,-19.265487,75.579852)"><tspan
         sodipodi:role="line"
         id="tspan2037"
         style="font-style:normal;font-variant:normal;font-weight:bold;font-stretch:normal;font-size:21.44px;font-family:Arial;-inkscape-font-specification:'Arial, Bold';font-variant-ligatures:normal;font-variant-caps:normal;font-variant-numeric:normal;font-variant-east-asian:normal;fill:#000000;stroke-width:1.04604"
         x="126.22086"
         y="120.94221">I</tspan></text><text
       xml:space="preserve"
       style="font-style:normal;font-variant:normal;font-weight:bold;font-stretch:normal;font-size:21.0327px;font-family:Arial;-inkscape-font-specification:'Arial, Bold';font-variant-ligatures:normal;font-variant-caps:normal;font-variant-numeric:normal;font-variant-east-asian:normal;text-align:center;text-anchor:middle;opacity:1;fill:#ffffff;fill-opacity:1;stroke-width:1.02618"
       x="116.20844"
       y="204.35123"
       id="text2043"
       transform="scale(1.1362652,0.88007623)"><tspan
         sodipodi:role="line"
         id="tspan2041"
         style="font-style:normal;font-variant:normal;font-weight:bold;font-stretch:normal;font-size:21.0327px;font-family:Arial;-inkscape-font-specification:'Arial, Bold';font-variant-ligatures:normal;font-variant-caps:normal;font-variant-numeric:normal;font-variant-east-asian:normal;fill:#ffffff;stroke-width:1.02617"
         x="116.20844"
         y="204.35123">I</tspan></text></g></svg>
